<svg xmlns="http://www.w3.org/2000/svg" width="38" height="35" viewBox="0 0 38 35" fill="none">
  <path d="M37.0916 0.304007C36.9294 0.155219 36.7319 0.0562935 36.5206 0.0179048C36.3092 -0.0204839 36.0921 0.00312199 35.8924 0.0861752L1.80742 14.247C1.39284 14.4193 1.04208 14.7296 0.807817 15.1315C0.573553 15.5334 0.468433 16.0051 0.508243 16.4759C0.548052 16.9466 0.730643 17.3909 1.02859 17.7421C1.32654 18.0932 1.72377 18.3323 2.16062 18.4233L11.263 20.3213V31.0683C11.2631 31.5665 11.4036 32.0533 11.6662 32.4662C11.9289 32.8791 12.3018 33.1993 12.737 33.3856C13.1723 33.572 13.65 33.6159 14.109 33.512C14.568 33.408 14.9872 33.1608 15.3129 32.802L19.7935 27.8687L26.7867 34.3769C27.2137 34.7779 27.764 34.9995 28.3341 35C28.583 34.9994 28.8304 34.9578 29.0674 34.8768C29.4559 34.7463 29.8053 34.5099 30.081 34.1913C30.3566 33.8727 30.5487 33.483 30.6382 33.0609L37.47 1.53065C37.5181 1.30899 37.5082 1.07761 37.4415 0.861456C37.3748 0.645301 37.2539 0.452562 37.0916 0.304007ZM2.52559 16.3147C2.51914 16.2962 2.51914 16.276 2.52559 16.2575C2.53318 16.2513 2.54171 16.2465 2.55081 16.2432L29.4121 5.08024L12.0383 18.293L2.55081 16.3218L2.52559 16.3147ZM13.8598 31.3129C13.8134 31.364 13.7538 31.3992 13.6885 31.4142C13.6232 31.4291 13.5552 31.4231 13.4931 31.3969C13.4311 31.3706 13.3778 31.3254 13.34 31.2669C13.3023 31.2083 13.2818 31.1392 13.2812 31.0683V21.8033L18.2747 26.4456L13.8598 31.3129ZM28.6721 32.5771C28.6597 32.6374 28.6322 32.6932 28.5926 32.7384C28.5529 32.7836 28.5026 32.8167 28.4467 32.8342C28.3898 32.8554 28.3285 32.86 28.2693 32.8474C28.2101 32.8348 28.1552 32.8056 28.1104 32.7628L13.8934 19.5232L34.9775 3.48221L28.6721 32.5771Z" fill="#5C5C5C"/>
</svg>