<svg xmlns="http://www.w3.org/2000/svg" width="35" height="34" viewBox="0 0 35 34" fill="none">
  <path d="M27.2859 20.105L21.9521 17.4383C21.7946 17.36 21.6192 17.3246 21.4436 17.3357C21.268 17.3468 21.0984 17.4041 20.952 17.5017L18.3385 19.2433C17.0154 18.5661 15.9389 17.4897 15.2615 16.1667L17.005 13.555C17.1026 13.4086 17.1599 13.2391 17.171 13.0635C17.1821 12.8879 17.1467 12.7125 17.0684 12.555L14.4015 7.22167C14.3185 7.05481 14.1906 6.91443 14.0322 6.81637C13.8738 6.7183 13.6911 6.66646 13.5047 6.66667C11.8249 6.66667 10.2138 7.33393 9.02598 8.52166C7.83815 9.70939 7.17083 11.3203 7.17083 13C7.17524 16.8001 8.6869 20.4433 11.3742 23.1303C14.0615 25.8174 17.705 27.3289 21.5054 27.3333C23.1853 27.3333 24.7963 26.6661 25.9842 25.4783C27.172 24.2906 27.8393 22.6797 27.8393 21C27.8394 20.8141 27.7876 20.6319 27.6899 20.4738C27.5921 20.3157 27.4522 20.188 27.2859 20.105ZM21.5054 25.3333C18.2354 25.3294 15.1003 24.0287 12.7881 21.7166C10.4758 19.4045 9.17497 16.2698 9.171 13C9.1711 11.9542 9.54946 10.9436 10.2363 10.1549C10.9231 9.36612 11.872 8.85234 12.908 8.70833L15.0182 12.9283L13.2864 15.525C13.1954 15.662 13.1396 15.8192 13.1239 15.9829C13.1082 16.1466 13.1331 16.3116 13.1964 16.4633C14.116 18.6496 15.8553 20.3888 18.0418 21.3083C18.1936 21.3716 18.3586 21.3965 18.5223 21.3808C18.686 21.3651 18.8432 21.3093 18.9802 21.2183L21.5771 19.4867L25.7975 21.5967C25.6535 22.6325 25.1396 23.5814 24.3508 24.2682C23.562 24.9549 22.5514 25.3332 21.5054 25.3333ZM17.5051 3.74694e-07C14.5578 -0.000618286 11.661 0.764879 9.09881 2.22139C6.53665 3.67791 4.39717 5.7754 2.89025 8.3081C1.38334 10.8408 0.560772 13.7217 0.50324 16.6682C0.445708 19.6146 1.15519 22.5254 2.56209 25.115L0.625247 30.9267C0.488129 31.3378 0.46823 31.779 0.567781 32.2008C0.667331 32.6226 0.882396 33.0083 1.18887 33.3148C1.49535 33.6212 1.88112 33.8363 2.30296 33.9358C2.72479 34.0353 3.16601 34.0154 3.57717 33.8783L9.38935 31.9417C11.6645 33.1762 14.1916 33.875 16.7779 33.9847C19.3641 34.0944 21.9413 33.6122 24.3129 32.5747C26.6845 31.5373 28.7878 29.972 30.4625 27.9984C32.1372 26.0247 33.3391 23.6947 33.9765 21.186C34.6139 18.6773 34.67 16.0562 34.1405 13.5226C33.611 10.989 32.5099 8.60967 30.9211 6.56616C29.3324 4.52266 27.2979 2.86889 24.9729 1.73096C22.6479 0.593037 20.0937 0.00100143 17.5051 3.74694e-07ZM17.5051 32C14.8681 32.0006 12.2775 31.3062 9.99441 29.9867C9.84221 29.8992 9.66992 29.8527 9.49436 29.8517C9.38675 29.8523 9.2799 29.8697 9.17767 29.9033L2.94545 31.98C2.88672 31.9996 2.82368 32.0024 2.76342 31.9882C2.70316 31.974 2.64805 31.9433 2.60427 31.8995C2.56048 31.8557 2.52976 31.8006 2.51554 31.7403C2.50132 31.6801 2.50416 31.6171 2.52375 31.5583L4.6006 25.3333C4.64553 25.1988 4.66134 25.0563 4.64697 24.9152C4.6326 24.7741 4.58839 24.6377 4.51726 24.515C2.86254 21.6568 2.19741 18.3325 2.62508 15.0578C3.05274 11.783 4.54927 8.74093 6.88251 6.40347C9.21575 4.066 12.2553 2.56383 15.5295 2.12999C18.8037 1.69615 22.1296 2.35491 24.9911 4.00405C27.8527 5.6532 30.09 8.20054 31.3559 11.2509C32.6218 14.3012 32.8455 17.684 31.9924 20.8745C31.1392 24.065 29.2569 26.8847 26.6375 28.8963C24.0181 30.9079 20.8079 31.9989 17.5051 32Z" fill="#5C5C5C"/>
</svg>